<svg xmlns="http://www.w3.org/2000/svg" width="68.636" height="55.359" viewBox="0 0 68.636 55.359">
  <g id="_5027889_eye_find_magnifier_search_view_icon" data-name="5027889_eye_find_magnifier_search_view_icon" transform="translate(-13.751 -14.561)">
    <path id="Path_4554" data-name="Path 4554" d="M68.163,15.833A35.712,35.712,0,0,0,21.4,49.816a35.433,35.433,0,0,0,3.165,14.652h43.6V15.833Z" transform="translate(14.224 5.452)" fill="#eb5639"/>
    <g id="Group_1659" data-name="Group 1659" transform="translate(15.781 14.561)">
      <path id="Path_4555" data-name="Path 4555" d="M65.97,24.654C57.123,36.371,45.531,42.237,33.925,42.237S10.727,36.371,1.88,24.654C19.575,1.205,48.262,1.205,65.97,24.654Z" transform="translate(-0.835 -6.012)" fill="#1f95d3"/>
      <path id="Path_4556" data-name="Path 4556" d="M28.482,36.055A12.762,12.762,0,1,1,41.245,23.292,12.778,12.778,0,0,1,28.482,36.055Z" transform="translate(4.608 -4.65)" fill="#fff"/>
      <g id="Group_1658" data-name="Group 1658">
        <path id="Path_4557" data-name="Path 4557" d="M67.1,24.325A47.7,47.7,0,0,0,51.775,10.838,36.841,36.841,0,0,0,34.234,6.31h-.028a36.841,36.841,0,0,0-17.541,4.528A47.7,47.7,0,0,0,1.339,24.325a1.045,1.045,0,0,0,0,1.254A51.654,51.654,0,0,0,8.5,33.339a1.046,1.046,0,0,0,1.393-1.56H9.88A49.026,49.026,0,0,1,3.5,24.952C11.789,14.293,22.7,8.414,34.206,8.414s22.432,5.88,30.722,16.538C56.624,35.624,45.715,41.49,34.206,41.5a35.909,35.909,0,0,1-20.049-6.4,1.062,1.062,0,0,0-1.449.279,1.049,1.049,0,0,0,.279,1.449A37.822,37.822,0,0,0,34.206,43.58h.014a36.784,36.784,0,0,0,17.541-4.514A47.7,47.7,0,0,0,67.087,25.579,1.025,1.025,0,0,0,67.1,24.325Z" transform="translate(-1.13 -6.31)" fill="#505050"/>
        <path id="Path_4558" data-name="Path 4558" d="M9.37,25.877A1.049,1.049,0,0,0,8.1,27.548a1.04,1.04,0,0,0,.641.209,1.01,1.01,0,0,0,.822-.4,1.065,1.065,0,0,0-.2-1.477Z" transform="translate(1.456 1.306)" fill="#505050"/>
        <path id="Path_4559" data-name="Path 4559" d="M29.257,8.56A1.053,1.053,0,0,0,28.212,9.6v.711A13.814,13.814,0,0,0,15.506,23.022h-.711a1.045,1.045,0,0,0,0,2.09h.711A13.814,13.814,0,0,0,28.212,37.819v.711a1.045,1.045,0,0,0,2.09,0v-.711A13.826,13.826,0,0,0,43.009,25.112h.711a1.045,1.045,0,0,0,0-2.09h-.711A13.814,13.814,0,0,0,30.3,10.316V9.6A1.044,1.044,0,0,0,29.257,8.56ZM40.919,23.022h-.613a1.045,1.045,0,1,0,0,2.09h.613A11.723,11.723,0,0,1,30.3,35.729v-.613a1.045,1.045,0,1,0-2.09,0v.613A11.723,11.723,0,0,1,17.6,25.112h.613a1.045,1.045,0,0,0,0-2.09H17.6A11.723,11.723,0,0,1,28.212,12.405v.613a1.045,1.045,0,1,0,2.09,0v-.613A11.723,11.723,0,0,1,40.919,23.022Z" transform="translate(3.833 -5.425)" fill="#505050"/>
        <path id="Path_4560" data-name="Path 4560" d="M27.085,14.465a1.045,1.045,0,0,0-2.09,0v.683a4.1,4.1,0,0,0,1.045,8.067,2.02,2.02,0,1,1-2.02,2.02,1.045,1.045,0,0,0-2.09,0A4.121,4.121,0,0,0,25,29.192v.683a1.045,1.045,0,0,0,2.09,0v-.683a4.1,4.1,0,0,0-1.045-8.067,2.02,2.02,0,1,1,2.02-2.02,1.045,1.045,0,1,0,2.09,0,4.121,4.121,0,0,0-3.065-3.957Z" transform="translate(7.05 -3.514)" fill="#505050"/>
      </g>
    </g>
    <path id="Path_4561" data-name="Path 4561" d="M230.029,57.686H228.68V56.337a.337.337,0,0,0-.674,0v1.349h-1.349a.337.337,0,0,0,0,.674h1.349v1.349a.337.337,0,1,0,.674,0V58.36h1.349a.337.337,0,0,0,0-.674Z" transform="translate(-152.643 -25.344)" fill="#fd0"/>
    <path id="Path_4562" data-name="Path 4562" d="M194.753,30.546a2.023,2.023,0,1,1,2.023-2.023A2.023,2.023,0,0,1,194.753,30.546Zm0-3.372a1.349,1.349,0,1,0,1.349,1.349A1.349,1.349,0,0,0,194.753,27.174Z" transform="translate(-130.297 -5.7)" fill="#fff"/>
    <path id="Path_4563" data-name="Path 4563" d="M149.523,140.926a2.023,2.023,0,1,1,2.023-2.023A2.023,2.023,0,0,1,149.523,140.926Zm0-3.372a1.349,1.349,0,1,0,1.349,1.349A1.349,1.349,0,0,0,149.523,137.554Z" transform="translate(-100.234 -79.103)" fill="#fd0"/>
    <path id="Path_4564" data-name="Path 4564" d="M228.343,106.046a2.023,2.023,0,1,1,2.023-2.023A2.023,2.023,0,0,1,228.343,106.046Zm0-3.372a1.349,1.349,0,1,0,1.349,1.349A1.349,1.349,0,0,0,228.343,102.674Z" transform="translate(-152.643 -55.919)" fill="#40bdff"/>
    <path id="Path_4565" data-name="Path 4565" d="M51.259,69.686H50.4l.617-.617a.337.337,0,0,0-.475-.475l-.617.617v-.873a.337.337,0,1,0-.674,0v.873l-.617-.617a.337.337,0,0,0-.475.475l.6.617h-.87a.337.337,0,0,0,0,.674h.873l-.62.617a.337.337,0,0,0,.475.475l.617-.617v.873a.337.337,0,1,0,.674,0v-.873l.617.617A.337.337,0,0,0,51,70.977l-.6-.617h.873a.337.337,0,0,0,0-.674Z" transform="translate(-33.799 -33.32)" fill="#fff"/>
  </g>
</svg>
