<svg xmlns="http://www.w3.org/2000/svg" width="71.472" height="71.472" viewBox="0 0 71.472 71.472">
  <g id="_2620504_employee_job_rotation_seeker_unemployee_icon" data-name="2620504_employee_job_rotation_seeker_unemployee_icon" transform="translate(-7.5 -7.5)">
    <path id="Path_4522" data-name="Path 4522" d="M115.763,14.385A2.385,2.385,0,0,0,113.378,12H96.385A2.385,2.385,0,0,0,94,14.385V32.9a2.385,2.385,0,0,0,2.385,2.385h16.993a2.385,2.385,0,0,0,2.385-2.385ZM101.006,23.1a4.835,4.835,0,1,1,6.231,0l-.206.173.256.08a6.922,6.922,0,0,1,4.841,6.618v2.132a.6.6,0,0,1-.6.6H96.722a.6.6,0,0,1-.6-.6V29.977a6.922,6.922,0,0,1,4.841-6.618l.256-.08Z" transform="translate(-60.906 -3.159)" fill="#40bdff"/>
    <path id="Path_4523" data-name="Path 4523" d="M119.023,31.9h.79a3.643,3.643,0,1,0-.79,0Z" transform="translate(-76.183 -12.025)" fill="#effafe"/>
    <path id="Path_4524" data-name="Path 4524" d="M105.13,58.754v1.535h13.633V58.754A5.76,5.76,0,0,0,113.012,53h-2.132a5.76,5.76,0,0,0-5.751,5.754Z" transform="translate(-68.712 -32.014)" fill="#effafe"/>
    <path id="Path_4525" data-name="Path 4525" d="M182.09,212.671v1.535h13.633v-1.535a5.76,5.76,0,0,0-5.751-5.751h-2.132A5.76,5.76,0,0,0,182.09,212.671Z" transform="translate(-122.916 -140.344)" fill="#effafe"/>
    <path id="Path_4526" data-name="Path 4526" d="M190.314,165.91h-17.02a2.385,2.385,0,0,0-2.385,2.385v18.51a2.385,2.385,0,0,0,2.385,2.385h17.02a2.385,2.385,0,0,0,2.385-2.385v-18.51A2.385,2.385,0,0,0,190.314,165.91Zm-14.092,7.411a4.835,4.835,0,0,1,9.671,0,4.893,4.893,0,0,1-1.926,3.876,6.936,6.936,0,0,1,5.1,6.7v2.132a.6.6,0,0,1-.6.6H173.647a.6.6,0,0,1-.6-.6V183.9a6.93,6.93,0,0,1,5.1-6.7A4.884,4.884,0,0,1,176.222,173.321Z" transform="translate(-115.069 -111.56)" fill="#fd0"/>
    <path id="Path_4527" data-name="Path 4527" d="M195.983,185.807h.79a3.643,3.643,0,1,0-.79,0Z" transform="translate(-130.387 -120.347)" fill="#effafe"/>
    <path id="Path_4528" data-name="Path 4528" d="M28.18,212.671v1.535H41.813v-1.535a5.76,5.76,0,0,0-5.751-5.751H33.931A5.76,5.76,0,0,0,28.18,212.671Z" transform="translate(-14.515 -140.344)" fill="#effafe"/>
    <path id="Path_4529" data-name="Path 4529" d="M36.4,165.91H19.385A2.385,2.385,0,0,0,17,168.295v18.51a2.385,2.385,0,0,0,2.385,2.385H36.4a2.385,2.385,0,0,0,2.385-2.385v-18.51A2.385,2.385,0,0,0,36.4,165.91Zm-12.372,11.1a4.835,4.835,0,1,1,6.231,0l-.206.173.256.08a6.922,6.922,0,0,1,4.841,6.618v2.132a.6.6,0,0,1-.6.6H19.737a.6.6,0,0,1-.6-.6v-2.132a6.922,6.922,0,0,1,4.841-6.621l.256-.08Z" transform="translate(-6.668 -111.56)" fill="#eb5639"/>
    <path id="Path_4530" data-name="Path 4530" d="M42.073,185.807h.79a3.643,3.643,0,1,0-.79,0Z" transform="translate(-21.986 -120.347)" fill="#effafe"/>
    <path id="Path_4531" data-name="Path 4531" d="M51.111,206.92H49.62a5.76,5.76,0,0,1,5.751,5.751v1.535h1.491v-1.535A5.76,5.76,0,0,0,51.111,206.92Z" transform="translate(-29.636 -140.344)" fill="#e4ebed"/>
    <path id="Path_4532" data-name="Path 4532" d="M49.245,178.55a3.646,3.646,0,0,0-.745.077,3.643,3.643,0,0,1,0,7.131c.113.024.233.042.349.057h.79a3.643,3.643,0,0,0-.394-7.265Z" transform="translate(-28.845 -120.353)" fill="#e4ebed"/>
    <path id="Path_4533" data-name="Path 4533" d="M205.021,206.92H203.53a5.76,5.76,0,0,1,5.751,5.751v1.535h1.491v-1.535A5.76,5.76,0,0,0,205.021,206.92Z" transform="translate(-137.964 -140.344)" fill="#e4ebed"/>
    <path id="Path_4534" data-name="Path 4534" d="M203.245,178.55a3.646,3.646,0,0,0-.745.077,3.643,3.643,0,0,1,0,7.131c.113.024.233.042.349.057h.79a3.643,3.643,0,0,0-.393-7.265Z" transform="translate(-137.242 -120.353)" fill="#e4ebed"/>
    <path id="Path_4535" data-name="Path 4535" d="M128.061,53H126.57a5.76,5.76,0,0,1,5.754,5.754v1.535h1.491V58.754A5.76,5.76,0,0,0,128.061,53Z" transform="translate(-83.779 -32.014)" fill="#e4ebed"/>
    <path id="Path_4536" data-name="Path 4536" d="M126.245,24.64a3.646,3.646,0,0,0-.745.078,3.643,3.643,0,0,1,0,7.131c.113.024.233.042.349.057h.79a3.643,3.643,0,0,0-.394-7.265Z" transform="translate(-83.017 -12.03)" fill="#e4ebed"/>
    <path id="Path_4537" data-name="Path 4537" d="M155.491,12H154a2.385,2.385,0,0,1,2.385,2.385V32.9A2.385,2.385,0,0,1,154,35.28h1.491a2.385,2.385,0,0,0,2.385-2.385V14.385A2.385,2.385,0,0,0,155.491,12Z" transform="translate(-103.066 -3.159)" fill="#2197f7"/>
    <path id="Path_4538" data-name="Path 4538" d="M78.581,165.91H77.09a2.385,2.385,0,0,1,2.385,2.385v18.51a2.385,2.385,0,0,1-2.385,2.385h1.491a2.385,2.385,0,0,0,2.385-2.385v-18.51A2.385,2.385,0,0,0,78.581,165.91Z" transform="translate(-48.958 -111.56)" fill="#d84936"/>
    <path id="Path_4539" data-name="Path 4539" d="M232.491,165.91H231a2.385,2.385,0,0,1,2.385,2.385v18.51A2.385,2.385,0,0,1,231,189.19h1.491a2.385,2.385,0,0,0,2.385-2.385v-18.51A2.385,2.385,0,0,0,232.491,165.91Z" transform="translate(-157.245 -111.56)" fill="#efc803"/>
    <path id="Path_4540" data-name="Path 4540" d="M112,28.921a4.985,4.985,0,1,0-6.424,0,7.1,7.1,0,0,0-4.949,6.758v2.132a.745.745,0,0,0,.745.745H116.2a.745.745,0,0,0,.745-.745V35.679A7.1,7.1,0,0,0,112,28.921ZM105.3,25.114a3.494,3.494,0,1,1,3.876,3.473h-.76A3.5,3.5,0,0,1,105.3,25.114ZM115.458,37.08H102.121v-1.4a5.608,5.608,0,0,1,5.6-5.6h2.132a5.608,5.608,0,0,1,5.6,5.6Z" transform="translate(-65.554 -8.861)" fill="#263238"/>
    <path id="Path_4541" data-name="Path 4541" d="M110.416,29.737V11.226A3.729,3.729,0,0,0,106.675,7.5H88.191a3.729,3.729,0,0,0-3.741,3.726v18.51a3.729,3.729,0,0,0,3.741,3.726h18.483a3.729,3.729,0,0,0,3.741-3.726Zm-24.472,0V11.226a2.239,2.239,0,0,1,2.248-2.236h18.483a2.239,2.239,0,0,1,2.236,2.236v18.51a2.239,2.239,0,0,1-2.236,2.236H88.191a2.239,2.239,0,0,1-2.251-2.236Z" transform="translate(-54.197 0)" fill="#263238"/>
    <path id="Path_4542" data-name="Path 4542" d="M24.425,192.459H39.251a.745.745,0,0,0,.745-.745v-2.132a7.1,7.1,0,0,0-4.946-6.761,4.985,4.985,0,1,0-6.424,0,7.1,7.1,0,0,0-4.946,6.761v2.132A.745.745,0,0,0,24.425,192.459Zm3.92-13.442a3.494,3.494,0,1,1,3.876,3.473h-.763A3.5,3.5,0,0,1,28.346,179.017Zm-3.175,10.565a5.608,5.608,0,0,1,5.6-5.6H32.9a5.608,5.608,0,0,1,5.6,5.6v1.386H25.171Z" transform="translate(-11.356 -117.255)" fill="#263238"/>
    <path id="Path_4543" data-name="Path 4543" d="M11.226,187.373h18.51a3.729,3.729,0,0,0,3.726-3.726v-18.51a3.729,3.729,0,0,0-3.726-3.726H11.226A3.729,3.729,0,0,0,7.5,165.136v18.51A3.729,3.729,0,0,0,11.226,187.373ZM8.991,165.136a2.239,2.239,0,0,1,2.236-2.236h18.51a2.239,2.239,0,0,1,2.236,2.236v18.51a2.239,2.239,0,0,1-2.236,2.236H11.226a2.239,2.239,0,0,1-2.236-2.236Z" transform="translate(0 -108.401)" fill="#263238"/>
    <path id="Path_4544" data-name="Path 4544" d="M188.96,182.821a4.985,4.985,0,1,0-6.424,0,7.1,7.1,0,0,0-4.946,6.761v2.132a.745.745,0,0,0,.745.745h14.825a.745.745,0,0,0,.745-.745v-2.132A7.1,7.1,0,0,0,188.96,182.821Zm-6.7-3.8a3.494,3.494,0,1,1,3.876,3.473h-.76a3.5,3.5,0,0,1-3.118-3.473Zm10.163,11.952H179.081v-1.386a5.608,5.608,0,0,1,5.6-5.6h2.132a5.608,5.608,0,0,1,5.6,5.6Z" transform="translate(-119.758 -117.255)" fill="#263238"/>
    <path id="Path_4545" data-name="Path 4545" d="M183.647,161.41h-18.51a3.729,3.729,0,0,0-3.726,3.726v18.51a3.729,3.729,0,0,0,3.726,3.726h18.51a3.729,3.729,0,0,0,3.726-3.726v-18.51A3.729,3.729,0,0,0,183.647,161.41Zm2.236,22.237a2.239,2.239,0,0,1-2.236,2.236h-18.51a2.239,2.239,0,0,1-2.236-2.236v-18.51a2.239,2.239,0,0,1,2.236-2.236h18.51a2.239,2.239,0,0,1,2.236,2.236Z" transform="translate(-108.401 -108.401)" fill="#263238"/>
    <path id="Path_4546" data-name="Path 4546" d="M111.041,197.983a.745.745,0,0,0,1.055,0l4.215-4.215a.745.745,0,0,0,0-1.055l-4.218-4.227a.746.746,0,1,0-1.055,1.055l2.942,2.945H100.335a.745.745,0,0,0,0,1.491h13.648l-2.942,2.954A.745.745,0,0,0,111.041,197.983Z" transform="translate(-64.824 -127.252)" fill="#263238"/>
    <path id="Path_4547" data-name="Path 4547" d="M184.9,104.6a.745.745,0,0,0,.745-.745V99.686l9.65,9.65a.746.746,0,0,0,1.055-1.055l-9.65-9.65h4.174a.745.745,0,1,0,0-1.491h-5.962a.745.745,0,0,0-.745.745v5.962A.745.745,0,0,0,184.9,104.6Z" transform="translate(-124.376 -63.085)" fill="#263238"/>
    <path id="Path_4548" data-name="Path 4548" d="M42.423,97.394a.745.745,0,0,0-1.055,0l-9.647,9.65v-4.174a.745.745,0,1,0-1.491,0v5.962a.745.745,0,0,0,.745.745h5.962a.745.745,0,0,0,0-1.491H32.764l9.65-9.65A.745.745,0,0,0,42.423,97.394Z" transform="translate(-15.954 -63.11)" fill="#263238"/>
    <path id="Path_4549" data-name="Path 4549" d="M229.6,57.491h-1.192V56.3a.3.3,0,1,0-.6,0v1.192h-1.192a.3.3,0,0,0,0,.6h1.192v1.192a.3.3,0,1,0,.6,0V58.087H229.6a.3.3,0,0,0,0-.6Z" transform="translate(-153.96 -34.121)" fill="#fd0"/>
    <path id="Path_4550" data-name="Path 4550" d="M194.519,30.077a1.789,1.789,0,1,1,1.789-1.789A1.789,1.789,0,0,1,194.519,30.077Zm0-2.981a1.192,1.192,0,1,0,1.192,1.192A1.192,1.192,0,0,0,194.519,27.1Z" transform="translate(-130.313 -13.336)" fill="#40bdff"/>
    <path id="Path_4551" data-name="Path 4551" d="M149.289,140.457a1.789,1.789,0,1,1,1.789-1.789A1.789,1.789,0,0,1,149.289,140.457Zm0-2.981a1.192,1.192,0,1,0,1.192,1.192A1.192,1.192,0,0,0,149.289,137.476Z" transform="translate(-98.492 -91.021)" fill="#fd0"/>
    <path id="Path_4552" data-name="Path 4552" d="M228.109,105.577a1.789,1.789,0,1,1,1.789-1.789A1.789,1.789,0,0,1,228.109,105.577Zm0-2.981a1.192,1.192,0,1,0,1.192,1.192A1.192,1.192,0,0,0,228.109,102.6Z" transform="translate(-153.96 -66.482)" fill="#40bdff"/>
    <path id="Path_4553" data-name="Path 4553" d="M50.829,69.491h-.76l.546-.546a.3.3,0,0,0-.42-.42l-.546.546V68.3a.3.3,0,0,0-.6,0v.772l-.546-.546a.3.3,0,0,0-.42.42l.531.546h-.769a.3.3,0,1,0,0,.6h.772l-.549.546a.3.3,0,0,0,.42.42l.546-.546v.772a.3.3,0,1,0,.6,0v-.772l.546.546a.3.3,0,0,0,.42-.42l-.531-.546h.772a.3.3,0,0,0,0-.6Z" transform="translate(-28.176 -42.563)" fill="#40bdff"/>
  </g>
</svg>
