<svg xmlns="http://www.w3.org/2000/svg" width="61.685" height="71.472" viewBox="0 0 61.685 71.472">
  <g id="_2620529_checklist_employee_job_seeker_unemployee_icon" data-name="2620529_checklist_employee_job_seeker_unemployee_icon" transform="translate(-28 -7.5)">
    <path id="Path_4503" data-name="Path 4503" d="M98.26,20.043v3.938a1.984,1.984,0,0,0,2,1.981H115.71a1.984,1.984,0,0,0,1.984-1.981V20.043a1.987,1.987,0,0,0-1.984-1.984,3.164,3.164,0,0,1-3.167-3.167v-.91a1.984,1.984,0,0,0-2-1.981H105.4a1.984,1.984,0,0,0-1.984,1.981v.91a3.17,3.17,0,0,1-3.152,3.167,1.984,1.984,0,0,0-2,1.984Z" transform="translate(-49.423 -3.165)" fill="#40bdff"/>
    <path id="Path_4504" data-name="Path 4504" d="M139.2,18.059a3.164,3.164,0,0,1-3.167-3.167v-.91A1.984,1.984,0,0,0,134.052,12H131.68a1.984,1.984,0,0,1,1.984,1.981v.91a3.164,3.164,0,0,0,3.167,3.167,1.987,1.987,0,0,1,1.984,1.984v3.938a1.984,1.984,0,0,1-1.984,1.981H139.2a1.984,1.984,0,0,0,1.984-1.981V20.043A1.987,1.987,0,0,0,139.2,18.059Z" transform="translate(-72.932 -3.165)" fill="#2197f7"/>
    <path id="Path_4505" data-name="Path 4505" d="M57.647,105.958H97.5a2.373,2.373,0,0,0,2.372-2.373V50.133A2.373,2.373,0,0,0,97.5,47.76H87.728v1.376a3.173,3.173,0,0,1-3.17,3.167H69.121a3.173,3.173,0,0,1-3.185-3.167V47.76h-8.3a2.373,2.373,0,0,0-2.373,2.373v53.453a2.373,2.373,0,0,0,2.387,2.373Zm9.315-50.265a.593.593,0,0,1,0,.839l-5.931,5.931a.593.593,0,0,1-.839,0L57.226,59.5a.593.593,0,0,1,.839-.839l2.547,2.547,5.513-5.513A.593.593,0,0,1,66.962,55.693Zm-8.9,11.863L60.613,70.1l5.513-5.513a.593.593,0,1,1,.839.839l-5.931,5.931a.593.593,0,0,1-.839,0l-2.966-2.966a.593.593,0,0,1,.839-.839Zm0,8.9L60.613,79l5.513-5.513a.593.593,0,1,1,.839.839l-5.931,5.931a.593.593,0,0,1-.839,0l-2.966-2.966a.593.593,0,0,1,.839-.839Zm0,8.9L60.613,87.9l5.513-5.513a.593.593,0,0,1,.839.839l-5.931,5.931a.593.593,0,0,1-.839,0l-2.966-2.966a.593.593,0,0,1,.839-.839Zm0,8.873,2.547,2.542,5.513-5.507a.593.593,0,1,1,.839.839l-5.931,5.931a.593.593,0,0,1-.839,0l-2.966-2.966a.593.593,0,0,1,.839-.839ZM96.026,59.67H70.978a.593.593,0,0,1,0-1.186H96.017a.593.593,0,0,1,0,1.186ZM70.987,67.381H96.026a.593.593,0,0,1,0,1.186H70.978a.593.593,0,0,1,0-1.186Zm0,8.9H96.026a.593.593,0,0,1,0,1.186H70.978a.593.593,0,0,1,0-1.186Zm0,8.9H96.026a.593.593,0,0,1,0,1.186H70.978a.593.593,0,0,1,0-1.186Zm0,8.873H96.026a.593.593,0,0,1,0,1.186H70.978a.593.593,0,0,1,0-1.186Z" transform="translate(-19.176 -28.32)" fill="#effafe"/>
    <path id="Path_4506" data-name="Path 4506" d="M194.173,47.76H192.69a2.373,2.373,0,0,1,2.373,2.373v53.453a2.373,2.373,0,0,1-2.373,2.373h1.483a2.373,2.373,0,0,0,2.373-2.373V50.133A2.373,2.373,0,0,0,194.173,47.76Z" transform="translate(-115.849 -28.32)" fill="#e4ebed"/>
    <path id="Path_4507" data-name="Path 4507" d="M72.759,7.5H67.61a3.322,3.322,0,0,0-3.319,3.316v.91a1.836,1.836,0,0,1-1.818,1.833,3.316,3.316,0,0,0-3.333,3.319v1.228H49.517a3.71,3.71,0,0,0-3.707,3.707V75.265a3.71,3.71,0,0,0,3.707,3.707H90.852a3.71,3.71,0,0,0,3.707-3.707V21.812a3.71,3.71,0,0,0-3.707-3.707H81.229V16.877a3.322,3.322,0,0,0-3.319-3.319,1.83,1.83,0,0,1-1.833-1.833v-.91A3.322,3.322,0,0,0,72.759,7.5Zm8.47,13.316V19.588h9.623a2.227,2.227,0,0,1,2.224,2.224V75.265a2.227,2.227,0,0,1-2.224,2.224H49.517a2.227,2.227,0,0,1-2.224-2.224V21.812a2.227,2.227,0,0,1,2.224-2.224h9.623v1.228a3.322,3.322,0,0,0,3.333,3.316H77.925A3.322,3.322,0,0,0,81.229,20.816ZM77.91,15.042a1.839,1.839,0,0,1,1.836,1.836v3.938a1.836,1.836,0,0,1-1.836,1.833H62.474a1.836,1.836,0,0,1-1.836-1.833V16.877a1.836,1.836,0,0,1,1.836-1.836,3.319,3.319,0,0,0,3.316-3.316v-.91a1.836,1.836,0,0,1,1.836-1.833h5.148a1.836,1.836,0,0,1,1.836,1.833v.91a3.313,3.313,0,0,0,3.316,3.316Z" transform="translate(-12.528)" fill="#263238"/>
    <path id="Path_4508" data-name="Path 4508" d="M69.921,73.634l-5.406,5.406L62.074,76.6a.742.742,0,1,0-1.05,1.05l2.966,2.966a.741.741,0,0,0,1.05,0l5.931-5.931a.742.742,0,1,0-1.05-1.05Z" transform="translate(-23.078 -46.368)" fill="#263238"/>
    <path id="Path_4509" data-name="Path 4509" d="M105.76,84.161a.741.741,0,0,0,.741.741H131.54a.741.741,0,1,0,0-1.483H106.5A.741.741,0,0,0,105.76,84.161Z" transform="translate(-54.699 -53.405)" fill="#263238"/>
    <path id="Path_4510" data-name="Path 4510" d="M69.921,103.634l-5.406,5.406L62.074,106.6a.742.742,0,1,0-1.05,1.05l2.966,2.966a.741.741,0,0,0,1.05,0l5.931-5.931a.742.742,0,1,0-1.05-1.05Z" transform="translate(-23.078 -67.471)" fill="#263238"/>
    <path id="Path_4511" data-name="Path 4511" d="M131.54,113.42H106.5a.741.741,0,0,0,0,1.483H131.54a.741.741,0,0,0,0-1.483Z" transform="translate(-54.699 -74.508)" fill="#263238"/>
    <path id="Path_4512" data-name="Path 4512" d="M69.921,133.634l-5.406,5.406L62.074,136.6a.742.742,0,1,0-1.05,1.05l2.966,2.966a.741.741,0,0,0,1.05,0l5.931-5.931a.742.742,0,0,0-1.05-1.05Z" transform="translate(-23.078 -88.575)" fill="#263238"/>
    <path id="Path_4513" data-name="Path 4513" d="M131.54,143.42H106.5a.741.741,0,0,0,0,1.483H131.54a.741.741,0,0,0,0-1.483Z" transform="translate(-54.699 -95.611)" fill="#263238"/>
    <path id="Path_4514" data-name="Path 4514" d="M69.921,163.634l-5.406,5.406L62.074,166.6a.742.742,0,0,0-1.05,1.05l2.966,2.966a.741.741,0,0,0,1.05,0l5.931-5.931a.742.742,0,0,0-1.05-1.05Z" transform="translate(-23.078 -109.678)" fill="#263238"/>
    <path id="Path_4515" data-name="Path 4515" d="M131.54,173.42H106.5a.741.741,0,1,0,0,1.483H131.54a.741.741,0,1,0,0-1.483Z" transform="translate(-54.699 -116.714)" fill="#263238"/>
    <path id="Path_4516" data-name="Path 4516" d="M69.921,193.554l-5.406,5.406-2.441-2.441a.742.742,0,0,0-1.05,1.05l2.966,2.966a.741.741,0,0,0,1.05,0l5.931-5.931a.742.742,0,0,0-1.05-1.05Z" transform="translate(-23.078 -130.724)" fill="#263238"/>
    <path id="Path_4517" data-name="Path 4517" d="M131.54,203.34H106.5a.741.741,0,0,0,0,1.483H131.54a.741.741,0,0,0,0-1.483Z" transform="translate(-54.699 -137.761)" fill="#263238"/>
    <path id="Path_4518" data-name="Path 4518" d="M227.262,197.323h-1.186v-1.186a.3.3,0,1,0-.593,0v1.186H224.3a.3.3,0,1,0,0,.593h1.186V199.1a.3.3,0,1,0,.593,0v-1.186h1.186a.3.3,0,0,0,0-.593Z" transform="translate(-137.874 -132.485)" fill="#40bdff"/>
    <path id="Path_4519" data-name="Path 4519" d="M178.529,26.239a1.779,1.779,0,1,1,1.779-1.779A1.779,1.779,0,0,1,178.529,26.239Zm0-2.966a1.186,1.186,0,1,0,1.186,1.186A1.186,1.186,0,0,0,178.529,23.273Z" transform="translate(-104.636 -10.678)" fill="#40bdff"/>
    <path id="Path_4520" data-name="Path 4520" d="M225.779,80.979a1.779,1.779,0,1,1,1.779-1.779A1.779,1.779,0,0,1,225.779,80.979Zm0-2.966a1.186,1.186,0,1,0,1.186,1.186A1.186,1.186,0,0,0,225.779,78.013Z" transform="translate(-137.874 -49.184)" fill="#fd0"/>
    <path id="Path_4521" data-name="Path 4521" d="M31.262,150.833h-.768l.543-.543a.3.3,0,0,0-.418-.418l-.543.543v-.768a.3.3,0,1,0-.593,0v.768l-.543-.543a.3.3,0,0,0-.418.418l.543.543H28.3a.3.3,0,1,0,0,.593h.768l-.543.543a.3.3,0,0,0,.418.418l.543-.54v.768a.3.3,0,1,0,.593,0v-.768l.543.543a.3.3,0,0,0,.418-.418l-.543-.543h.768a.3.3,0,0,0,0-.593Z" transform="translate(0 -99.782)" fill="#40bdff"/>
  </g>
</svg>
