<svg id="Group_1346" data-name="Group 1346" xmlns="http://www.w3.org/2000/svg" width="37.056" height="31.28" viewBox="0 0 37.056 31.28">
  <path id="Path_4246" data-name="Path 4246" d="M1185.97-115.833c.232-2.69-.408-5.987.412-9.232,1.413-5.588,5.824-8.67,11.519-8.951,1.568-.078,2.437.478,2.485,2.2.091,3.24.06,3.374-2.138,3.564-4.117.357-5.772,1.842-6.257,5.615-.237,1.849.552,2.883,2.412,2.993,1.365.081,2.738.011,4.108.023,2.955.026,4.714,1.769,4.732,4.711.016,2.534.023,5.067,0,7.6a4.35,4.35,0,0,1-4.683,4.55q-3.9.024-7.806,0a4.41,4.41,0,0,1-4.769-4.7C1185.927-110.054,1185.97-112.657,1185.97-115.833Z" transform="translate(-1185.949 134.023)" fill="#1f95d3"/>
  <path id="Path_4247" data-name="Path 4247" d="M1233.975-115.789c.237-2.682-.4-5.975.4-9.225,1.412-5.725,6.015-8.8,11.685-9,1.665-.059,2.452.73,2.294,2.359-.139,1.436.844,3.38-2.055,3.465-4.144.121-5.788,1.749-6.291,5.512-.261,1.952.549,2.958,2.553,3.046,1.367.06,2.739,0,4.108.017a4.328,4.328,0,0,1,4.571,4.456q.048,4.005,0,8.012a4.316,4.316,0,0,1-4.426,4.389c-2.67.032-5.341.015-8.011,0-2.958-.011-4.746-1.7-4.816-4.648C1233.927-110,1233.975-112.6,1233.975-115.789Z" transform="translate(-1214.211 134.019)" fill="#1f95d3"/>
</svg>
